<svg xmlns="http://www.w3.org/2000/svg" width="71" height="68" viewBox="0 0 71 68">
    <g fill="none" fill-rule="evenodd">
        <path fill="#F7F7F7" d="M39.905 1.88l20.336 9.794c2.468 1.188 4.26 3.436 4.87 6.106l5.022 22.005c.61 2.67-.03 5.473-1.738 7.614L54.322 65.046c-1.708 2.142-4.297 3.389-7.036 3.389H24.714c-2.739 0-5.328-1.247-7.036-3.389L3.605 47.4c-1.708-2.141-2.347-4.944-1.738-7.614L6.89 17.78c.61-2.67 2.401-4.918 4.869-6.106L32.095 1.88c2.468-1.189 5.342-1.189 7.81 0z" transform="translate(0 -1)"/>
        <g fill="#BFBFBF">
            <path d="M1.799 52.57h25.175v-8.093H1.799v8.092zm4.495-10.79h16.184c.496 0 .899.403.899.899H5.395c0-.496.402-.9.899-.9zm4.495-1.798h7.193v-2.698H10.79v2.698zm2.698-4.496h1.798v-5.394h-1.798v5.394zm-6.515-14.75c-.45-1.018-.682-2.12-.678-3.232v-9.89h16.184v9.89c0 .261-.015.52-.04.777-.007.076-.02.151-.029.228-.023.187-.05.372-.09.557-.013.069-.028.138-.044.207-.049.217-.104.432-.17.644l-.02.066c-.083.255-.18.507-.288.753l-.13.293c-1.654 3.425-5.472 5.231-9.17 4.34h-.013c-2.459-.598-4.498-2.31-5.512-4.629v-.004zm-3.375-.535c-.497 0-.9-.402-.9-.9l-.899-7.238c.025-.479.42-.854.9-.853h1.798v6.294c.002.412.03.823.084 1.232.014.12.036.236.056.355.048.3.11.596.187.89.019.072.026.147.047.22H3.597zm-.9-14.386h23.377V2.22H2.697v3.596zm23.377 5.395c.479 0 .875.374.9.853l-.892 7.128-.008.11c0 .498-.403.9-.899.9h-1.273c0-.008 0-.017.005-.026.11-.396.195-.799.255-1.206.011-.077.02-.155.03-.232.053-.41.081-.82.084-1.233V11.21h1.798zM15.986 28.293h-3.2l.2-.998c.036 0 .07 0 .105.007.858.125 1.73.125 2.59 0 .034-.004.069 0 .104-.007l.2.998h.001zm6.492 11.689H19.78v-2.698c0-.993-.805-1.798-1.798-1.798h-.899v-5.77c.105-.081.201-.175.286-.278.345-.416.485-.966.38-1.497l-.216-1.063c2.457-.816 4.492-2.57 5.664-4.878h1.978c1.466 0 2.664-1.17 2.697-2.637l.893-7.142.007-.112c0-1.49-1.208-2.697-2.698-2.697h-1.798V7.614h3.596V.42H.9v7.193h3.597v1.798H2.697C1.207 9.412 0 10.62 0 12.109l.9 7.254C.932 20.83 2.13 22 3.596 22H5.6c1.175 2.294 3.198 4.04 5.639 4.866l-.217 1.08c-.104.53.035 1.08.38 1.495.085.103.18.197.286.279v5.766h-.899c-.993 0-1.798.805-1.798 1.798v2.698H6.294c-1.49 0-2.697 1.207-2.697 2.697H0v11.688h28.772V42.68h-3.597c0-1.49-1.208-2.697-2.697-2.697z" transform="translate(0 -1) translate(0 14)"/>
            <path d="M45.596 32.616c0 .392-.343.735-.735.735H22.673c-.392 0-.734-.343-.734-.735v-1.763c0-.392.342-.735.734-.735h22.188c.392 0 .735.343.735.735v1.763zm-9.306 16.31h6.807V34.771H36.29v14.155zm-3.625 0h2.106V34.771h-2.106v14.155zm-2.988-23.804c.098-.734.686-1.126 1.617-1.175h.048c.441 0 .735.147.98.44.44.53.614 1.428.664 2.337.045.475.016.894-.001 1.302-.007.147-.016.292-.026.427-2.302-.833-3.429-2.253-3.282-3.33zm4.813 1.714c.036-.978.204-1.966.673-2.497.245-.245.637-.441 1.029-.441.93.049 1.517.49 1.616 1.175.098 1.078-.98 2.498-3.282 3.331-.016-.217-.028-.457-.036-.704-.02-.291-.024-.55 0-.864zm10.371 1.862h-7.643c1.536-1.116 2.14-2.526 2.01-3.723-.196-1.469-1.371-2.4-3.036-2.449-.882 0-1.617.294-2.156.931-.103.119-.195.248-.28.383-.092-.153-.192-.3-.307-.432-.539-.637-1.274-.93-2.155-.93-1.666.048-2.89 1.028-3.037 2.448-.131 1.215.49 2.648 2.076 3.772h-7.66c-1.175 0-2.155.98-2.155 2.155v1.763c0 1.176.98 2.155 2.155 2.155h.196l-.017 3.925c.097-.032.43.026.525-.012.415.198.494.522.962.48v-4.393h6.906v14.155h-1.578l-.076.107c-.001.05.002.14.024.249l.006.032.004.034c.027.277.043.626-.013.999h14.269c.392 0 .735-.294.735-.735v-.54h-.001l-.046-14.3h.243c1.224 0 2.204-.98 2.204-2.156v-1.763c0-1.176-.98-2.155-2.155-2.155z" transform="translate(0 -1) translate(0 14)"/>
        </g>
    </g>
</svg>
