<svg xmlns="http://www.w3.org/2000/svg" width="72" height="72" viewBox="0 0 72 72">
  <defs>
    <filter id="prefix__icone-online-checkin-a">
      <feColorMatrix in="SourceGraphic" values="0 0 0 0 0.749020 0 0 0 0 0.749020 0 0 0 0 0.749020 0 0 0 1.000000 0"/>
    </filter>
  </defs>
  <g fill="none" fill-rule="evenodd">
    <path fill="#F7F7F7" d="M37.3016512,0.626842189 L62.8442822,12.9275249 C63.6668432,13.3236495 64.2642589,14.072785 64.4674147,14.9628687 L70.7759235,42.602252 C70.9790793,43.4923357 70.7658642,44.4264925 70.1966342,45.1402842 L52.5205852,67.3053487 C51.9513553,68.0191404 51.0880646,68.4348792 50.1750908,68.4348792 L21.8249092,68.4348792 C20.9119354,68.4348792 20.0486447,68.0191404 19.4794148,67.3053487 L1.80336575,45.1402842 C1.23413584,44.4264925 1.02092066,43.4923357 1.22407646,42.602252 L7.53258533,14.9628687 C7.73574113,14.072785 8.33315679,13.3236495 9.15571785,12.9275249 L34.6983488,0.626842189 C35.5209098,0.23071766 36.4790902,0.23071766 37.3016512,0.626842189 Z"/>
    <g filter="url(#prefix__icone-online-checkin-a)">
      <path fill="#000" fill-rule="nonzero" d="M4.83200676,0.288622159 L22.2830223,0.288622159 C23.5151919,0.288622159 24.6364191,0.794031074 25.4484236,1.60836675 C26.2592478,2.42270242 26.7643902,3.54596486 26.7643902,4.78285553 L26.7643902,24.6713473 C29.0198271,25.5673533 30.0548968,27.3925068 31.0758037,29.1939877 C31.7756855,30.4308784 32.4696661,31.6523819 33.5495848,32.2986425 C34.6401258,32.9496376 35.5984799,33.6976901 36.2960013,34.6197359 C37.0442729,35.6092484 37.4738799,36.7632852 37.4266703,38.1528638 C37.2508147,43.2661343 37.6721601,45.618002 38.4027281,49.6979658 C38.6387759,51.0117922 38.9066902,52.5019792 39.1887673,54.2715022 C39.5876881,55.3497868 39.226535,56.3333812 38.3555185,57.1926947 C37.7299918,57.8093646 36.8035041,58.3585677 35.7259458,58.8142643 C34.6991377,59.2486556 33.530701,59.6061111 32.3575433,59.8617746 C28.9560942,60.6015417 25.3103356,60.4429356 24.3177545,58.8852819 C24.2681845,58.8059789 24.2292366,58.723125 24.2009108,58.6390874 C24.1218348,58.4130146 24.0167935,58.1348622 23.8928684,57.8164664 L23.5529596,56.963071 C22.2806618,55.9072753 20.9800383,54.7698094 19.8045201,53.5116134 C18.6750313,52.3019462 17.676549,50.9928542 16.9542427,49.5618486 C15.8153119,49.4008753 15.2039481,49.5109527 14.1263898,49.7038839 C13.6590151,49.7879215 13.1220063,49.8849789 12.6027011,49.9630983 C10.9928549,50.2045583 9.80671462,49.3819373 9.16820526,48.2125134 C8.90147122,47.7236752 8.73623774,47.168554 8.68548746,46.6110654 C8.63355694,46.0381898 8.69847009,45.4582123 8.89202931,44.9362326 L8.93687839,44.8308898 C8.97818676,44.7290978 9.02421609,44.6296731 9.07378613,44.5337993 L4.83200676,44.5337993 C3.59865689,44.5337993 2.47860997,44.0283904 1.66660546,43.2140547 C0.854600951,42.4009027 0.35063885,41.275273 0.35063885,40.0395659 L0.35063885,4.78285553 C0.35063885,3.54596486 0.854600951,2.42270242 1.66660546,1.60836675 C2.47860997,0.794031074 3.59865689,0.288622159 4.83200676,0.288622159 Z M26.7643902,36.8473227 L28.9584547,39.0476861 C29.4447132,39.5329734 29.4470737,40.3224529 28.9643559,40.8101074 C28.4804579,41.2977619 27.6920581,41.3001291 27.2069798,40.8148419 L24.6375993,38.2404522 C23.3228129,37.1242916 21.9301308,36.0175999 20.4760762,34.9191936 C18.9169803,33.7438516 17.2611049,32.5578569 15.5285138,31.3635768 C14.6964453,30.7907012 13.9705982,30.7196835 13.4406708,30.9445727 C13.2069835,31.0439974 13.0004417,31.2061544 12.8375687,31.4085547 C12.6676142,31.620424 12.5472298,31.871353 12.4882179,32.1376692 C12.3560311,32.7318501 12.5224448,33.4266395 13.1125644,33.9995151 C14.6846429,35.5287618 16.0619819,36.9479311 17.3401809,38.438118 C18.5062571,39.7981059 19.5897166,41.2196425 20.6637342,42.8400284 C20.8986018,43.0152053 21.062655,43.2791542 21.1075041,43.588081 C21.1429113,43.699342 21.1641556,43.8165211 21.1641556,43.940802 C21.1641556,43.9893307 21.1606149,44.039043 21.1558939,44.0875718 C21.3258484,45.7671391 21.6114662,47.0407222 22.1142481,48.1403121 C22.6559778,49.3274904 23.4786045,50.3761843 24.7095939,51.581117 C25.1569045,52.0166919 25.1663464,52.7351538 24.7308382,53.1849322 C24.29533,53.633527 23.5789248,53.642996 23.1316142,53.2074211 C21.7011644,51.8071899 20.7298276,50.5549121 20.0582715,49.0824795 C19.5236232,47.9130556 19.1943365,46.6418398 18.9877947,45.0865533 L11.9866163,45.1386329 C11.4814739,45.1421838 11.175792,45.3682566 11.0388843,45.6700816 L11.0188202,45.7280794 C10.9421046,45.9363978 10.9161394,46.1719397 10.9373837,46.4062979 C10.9598082,46.6584105 11.0341633,46.9093396 11.1533674,47.127127 C11.3669907,47.5165404 11.7552894,47.7923256 12.2757748,47.7142062 C12.9355285,47.6159651 13.3615948,47.5378457 13.7274689,47.4727462 C15.2464367,47.1993283 16.0088712,47.0620275 17.9291202,47.4242175 C18.2820117,47.4916843 18.5971355,47.7248589 18.7541073,48.0775798 C19.3772736,49.4825456 20.3391685,50.7715159 21.4533142,51.9646123 C22.5780821,53.1707287 23.8787056,54.2963584 25.1533638,55.3474195 C25.3233182,55.4693332 25.4625864,55.6385919 25.5463834,55.8469103 L26.0019557,56.9891108 L26.2852131,57.7418978 C26.8647105,58.341997 29.3786198,58.1833909 31.8783663,57.6389223 C32.9417617,57.4081149 33.9744709,57.0944536 34.8490281,56.7251619 C35.6716548,56.3771754 36.3514725,55.9842111 36.7680969,55.574676 C36.9864411,55.3592558 37.1009243,55.1710591 37.0607962,55.0373092 C37.0194878,54.9461698 36.9899819,54.8491124 36.9746387,54.7473204 C36.679579,52.8961271 36.4128449,51.4071238 36.1791576,50.0968482 C35.4202638,45.8653802 34.9835754,43.4247404 35.1665124,38.0818462 C35.1948382,37.2592251 34.9399065,36.5750884 34.4961366,35.9880092 C34.0004362,35.3334632 33.2568855,34.7641385 32.3894098,34.2457096 C30.7972672,33.2940732 29.956937,31.8121716 29.1083451,30.3136993 C28.4568531,29.1643971 27.7970994,28.0020749 26.7643902,27.2528388 L26.7643902,36.8473227 Z M15.6760437,19.2574354 L15.6760437,21.7099115 L14.2621173,21.7099115 L14.2621173,19.2574354 L15.6760437,19.2574354 Z M22.3868833,16.777736 L22.3868833,19.5012627 L20.9741371,19.5012627 L20.9741371,16.777736 L22.3868833,16.777736 Z M20.114923,23.3681735 L22.3868833,23.3681735 L22.3868833,24.7849755 L20.114923,24.7849755 L20.114923,23.3681735 Z M14.2621173,23.3681735 L18.3245003,23.3681735 L18.3245003,24.7849755 L14.2621173,24.7849755 L14.2621173,23.3681735 Z M14.2621173,16.777736 L18.3976751,16.777736 L18.3976751,18.1637637 L20.1137428,18.1637637 L20.1137428,19.5817493 L18.3976751,19.5817493 L18.3976751,20.6162397 L22.3868833,20.6162397 L22.3868833,22.0342254 L16.9849289,22.0342254 L16.9849289,18.194538 L14.2621173,18.194538 L14.2621173,16.777736 Z M8.22165349,19.5793821 L10.4062761,19.5793821 L10.4062761,21.7714601 L8.22165349,21.7714601 L8.22165349,19.5793821 Z M5.94733272,16.5895392 L13.3875601,16.5895392 L13.3875601,24.761303 L5.24036949,24.761303 L5.24036949,16.5895392 L5.94733272,16.5895392 Z M11.9748139,18.0075249 L6.65429595,18.0075249 L6.65429595,23.3433173 L11.9748139,23.3433173 L11.9748139,18.0075249 Z M17.222157,10.741236 L19.4067796,10.741236 L19.4067796,12.9321304 L17.222157,12.9321304 L17.222157,10.741236 Z M14.9478362,7.75139314 L22.3880636,7.75139314 L22.3880636,15.9219733 L14.240873,15.9219733 L14.240873,7.75139314 L14.9478362,7.75139314 Z M20.9753173,9.16819517 L15.6547994,9.16819517 L15.6547994,14.5039877 L20.9753173,14.5039877 L20.9753173,9.16819517 Z M8.22165349,10.741236 L10.4062761,10.741236 L10.4062761,12.9321304 L8.22165349,12.9321304 L8.22165349,10.741236 Z M5.94733272,7.75139314 L13.3875601,7.75139314 L13.3875601,15.9219733 L5.24036949,15.9219733 L5.24036949,7.75139314 L5.94733272,7.75139314 Z M11.9748139,9.16819517 L6.65429595,9.16819517 L6.65429595,14.5039877 L11.9748139,14.5039877 L11.9748139,9.16819517 Z M24.4947904,35.1795917 L24.4947904,25.4904175 L24.4947904,4.78285553 C24.4947904,4.17447103 24.2445797,3.61816613 23.8444786,3.21691643 C23.4431973,2.8144831 22.8896652,2.56473772 22.2830223,2.56473772 L4.83200676,2.56473772 C4.22536386,2.56473772 3.67065147,2.8144831 3.27055041,3.21691643 C2.86926912,3.61816613 2.62023866,4.17447103 2.62023866,4.78285553 L2.62023866,40.0395659 C2.62023866,40.6491341 2.86926912,41.2030717 3.27055041,41.605505 C3.67065147,42.0067547 4.22536386,42.2576837 4.83200676,42.2576837 L17.4924317,42.2576837 C16.8869691,41.4421644 16.2673435,40.6680721 15.6205725,39.9141014 L15.5957875,39.8845107 C15.0446158,40.3555945 14.3329316,40.639665 13.5575145,40.639665 C12.691219,40.639665 11.9039995,40.2845768 11.333944,39.7140684 C10.7603478,39.1423763 10.4086366,38.3528968 10.4086366,37.4805634 C10.4086366,36.649657 10.7284814,35.893319 11.2525075,35.3299124 C10.2693683,34.2019154 10.0144367,32.8478456 10.2811707,31.648831 C10.4168982,31.0345284 10.691894,30.4628364 11.0742914,29.9870181 C11.4637703,29.5029145 11.9700929,29.1075829 12.5637532,28.8554703 C13.752254,28.351245 15.2558786,28.4234463 16.8137942,29.4969964 C18.549926,30.6936437 20.228226,31.8962092 21.8321709,33.1058764 C22.7515772,33.7994821 23.6402973,34.4907205 24.4947904,35.1795917 Z M14.5925842,38.7541465 C13.8809,37.9753197 13.1290877,37.2012273 12.3241646,36.4010952 C12.0727737,36.6910839 11.9217031,37.0674774 11.9217031,37.4805634 C11.9217031,37.9338927 12.1046402,38.3446114 12.3996999,38.6417019 C12.6947597,38.9387924 13.1043027,39.1222547 13.5575145,39.1222547 C13.9505341,39.1222547 14.3105071,38.9837703 14.5925842,38.7541465 Z" transform="rotate(-14 48.933 -3.15)"/>
    </g>
  </g>
</svg>
