<svg xmlns="http://www.w3.org/2000/svg" width="71" height="68" viewBox="0 0 71 68">
    <g fill="none" fill-rule="evenodd">
        <path fill="#F7F7F7" d="M39.905 1.88l20.336 9.794c2.468 1.188 4.26 3.436 4.87 6.106l5.022 22.005c.61 2.67-.03 5.473-1.738 7.614L54.322 65.046c-1.708 2.142-4.297 3.389-7.036 3.389H24.714c-2.739 0-5.328-1.247-7.036-3.389L3.605 47.4c-1.708-2.141-2.347-4.944-1.738-7.614L6.89 17.78c.61-2.67 2.401-4.918 4.869-6.106L32.095 1.88c2.468-1.189 5.342-1.189 7.81 0z" transform="translate(0 -1)"/>
        <path fill="#BFBFBF" d="M24 12c1.767 0 3.2 1.433 3.2 3.2 0 .302-.044.602-.128.892L39.77 27.728h2.897c2.945 0 5.333 2.388 5.333 5.333v21.606C48 57.612 45.612 60 42.667 60H5.333C2.388 60 0 57.612 0 54.667V33.06c0-2.945 2.388-5.333 5.333-5.333H8.23l12.699-11.637c-.084-.29-.128-.59-.128-.891 0-1.767 1.433-3.2 3.2-3.2zm18.667 17.328H5.333c-2.062 0-3.733 1.671-3.733 3.733v21.606c0 2.062 1.671 3.733 3.733 3.733h37.334c2.062 0 3.733-1.671 3.733-3.733V33.06c0-2.062-1.671-3.733-3.733-3.733zm-34 23.336v1.6H5.733v-1.6h2.934zm5.6 0v1.6h-2.934v-1.6h2.934zm5.6 0v1.6h-2.934v-1.6h2.934zm5.6 0v1.6h-2.934v-1.6h2.934zm16.8-4.8v1.6h-2.934v-1.6h2.934zm-5.6 0v1.6h-2.934v-1.6h2.934zm-5.6 0v1.6h-2.934v-1.6h2.934zm-22.4 0v1.6H5.733v-1.6h2.934zm5.6 0v1.6h-2.934v-1.6h2.934zm5.6 0v1.6h-2.934v-1.6h2.934zm5.6 0v1.6h-2.934v-1.6h2.934zm-16.8-4.8v1.6H5.733v-1.6h2.934zm5.6 0v1.6h-2.934v-1.6h2.934zm5.6 0v1.6h-2.934v-1.6h2.934zm5.6 0v1.6h-2.934v-1.6h2.934zm5.6 0v1.6h-2.934v-1.6h2.934zm5.6 0v1.6h-2.934v-1.6h2.934zm5.6 0v1.6h-2.934v-1.6h2.934zm-11.2-6.4v4.8H5.733v-4.8h25.334zm5.6 1.6v1.6h-2.934v-1.6h2.934zm5.6 0v1.6h-2.934v-1.6h2.934zm-12.667 0H7.2v1.6h22.4v-1.6zm-15.333-4.8v1.6h-2.934v-1.6h2.934zm5.6 0v1.6h-2.934v-1.6h2.934zm5.6 0v1.6h-2.934v-1.6h2.934zm5.6 0v1.6h-2.934v-1.6h2.934zm5.6 0v1.6h-2.934v-1.6h2.934zm5.6 0v1.6h-2.934v-1.6h2.934zM26.23 17.49c-.596.582-1.396.909-2.23.91-.834 0-1.636-.325-2.234-.907l-11.17 10.235h26.807zM24 13.6c-.884 0-1.6.716-1.6 1.6 0 .884.716 1.6 1.6 1.6.884 0 1.6-.716 1.6-1.6 0-.884-.716-1.6-1.6-1.6z" transform="translate(0 -1)"/>
    </g>
</svg>
